<svg xmlns="http://www.w3.org/2000/svg" viewBox="0 0 760 600" role="img" aria-labelledby="title desc">
  <title id="title">Crystal product arrangement</title>
  <desc id="desc">A tray with pyrite stones, a healing bottle, bracelet, and small candle.</desc>
  <defs>
    <linearGradient id="gold" x1="0" x2="1" y1="0" y2="1">
      <stop offset="0" stop-color="#ffe28a"/>
      <stop offset="0.5" stop-color="#c9942f"/>
      <stop offset="1" stop-color="#7a5514"/>
    </linearGradient>
    <linearGradient id="glass" x1="0" x2="1" y1="0" y2="1">
      <stop offset="0" stop-color="#f8ffff"/>
      <stop offset="1" stop-color="#acd6d3"/>
    </linearGradient>
    <filter id="shadow" x="-20%" y="-20%" width="140%" height="140%">
      <feDropShadow dx="0" dy="20" stdDeviation="22" flood-color="#2f4234" flood-opacity=".18"/>
    </filter>
  </defs>
  <rect width="760" height="600" fill="none"/>
  <ellipse cx="380" cy="430" rx="270" ry="92" fill="#d9c9a9" opacity=".55"/>
  <ellipse cx="380" cy="408" rx="310" ry="116" fill="#fff8e8" stroke="#c9b184" stroke-width="8" filter="url(#shadow)"/>
  <g transform="translate(442 88)">
    <rect x="46" y="0" width="78" height="48" rx="18" fill="#b79c76"/>
    <rect x="24" y="42" width="124" height="292" rx="44" fill="url(#glass)" stroke="#ffffff" stroke-width="10"/>
    <path d="M56 82h58v210H56z" fill="#ffffff" opacity=".35"/>
    <circle cx="84" cy="132" r="18" fill="#c56f72"/>
    <circle cx="92" cy="176" r="16" fill="#c9942f"/>
    <circle cx="76" cy="222" r="17" fill="#5f8f70"/>
    <circle cx="98" cy="264" r="16" fill="#67496d"/>
  </g>
  <g transform="translate(150 172)" filter="url(#shadow)">
    <path d="M96 0l52 64-28 96-94 20-26-88z" fill="url(#gold)" stroke="#7a5514" stroke-width="7"/>
    <path d="M96 0L72 90l76-26z" fill="#ffe28a" opacity=".78"/>
    <path d="M26 180l46-90 48 70z" fill="#9d6e19" opacity=".8"/>
    <path d="M0 92l72-2L96 0z" fill="#d59b31"/>
  </g>
  <g transform="translate(252 300)">
    <circle cx="95" cy="80" r="24" fill="#ffe28a" stroke="#916617" stroke-width="7"/>
    <circle cx="142" cy="64" r="23" fill="#c56f72" stroke="#8b4b4e" stroke-width="7"/>
    <circle cx="185" cy="88" r="23" fill="#67496d" stroke="#4b3152" stroke-width="7"/>
    <circle cx="220" cy="128" r="22" fill="#5f8f70" stroke="#42674e" stroke-width="7"/>
    <circle cx="176" cy="162" r="23" fill="#c9942f" stroke="#916617" stroke-width="7"/>
    <circle cx="124" cy="154" r="22" fill="#ead8c4" stroke="#b79c76" stroke-width="7"/>
    <circle cx="80" cy="124" r="23" fill="#26392c" stroke="#18241c" stroke-width="7"/>
  </g>
  <g transform="translate(98 360)">
    <rect x="0" y="34" width="86" height="58" rx="8" fill="#f8d986"/>
    <path d="M16 34c8-38 54-38 62 0z" fill="#fff4ca"/>
    <ellipse cx="43" cy="34" rx="43" ry="12" fill="#f1c95f"/>
  </g>
  <g transform="translate(516 334)" filter="url(#shadow)">
    <path d="M72 0l48 38-8 82-70 28-42-58z" fill="#7a5a94" stroke="#4b3152" stroke-width="7"/>
    <path d="M72 0L42 148 0 90z" fill="#a083b2" opacity=".7"/>
    <path d="M120 38L42 148l70-28z" fill="#67496d"/>
  </g>
</svg>
